<?xml version="1.0" standalone="no"?>
 <!DOCTYPE svg PUBLIC "-//W3C//DTD SVG 1.1//EN" 
 "http://www.w3.org/Graphics/SVG/1.1/DTD/svg11.dtd"> 
<svg
  xmlns:svg="http://www.w3.org/2000/svg"
  xmlns="http://www.w3.org/2000/svg"
  xmlns:xlink="http://www.w3.org/1999/xlink"
  version="1.1"
  width="297.0022mm" height="210.0072mm" viewBox="0.0000 0.0000 297.0022 210.0072">
<title>SVG Image created as Battery-User_3.svg date 2025/07/19 23:02:42 </title>
  <desc>Image generated by PCBNEW </desc>
<g style="fill:#000000; fill-opacity:1.0000;stroke:#000000; stroke-opacity:1.0000;
stroke-linecap:round; stroke-linejoin:round;"
 transform="translate(0 0) scale(1 1)">
</g>
<g style="fill:#000000; fill-opacity:0.0; 
stroke:#000000; stroke-width:0.0000; stroke-opacity:1; 
stroke-linecap:round; stroke-linejoin:round;">
</g>
<g style="fill:#B4DBD2; fill-opacity:0.0; 
stroke:#B4DBD2; stroke-width:0.0000; stroke-opacity:1; 
stroke-linecap:round; stroke-linejoin:round;">
</g>
<g style="fill:#B4DBD2; fill-opacity:0.0; 
stroke:#B4DBD2; stroke-width:0.1500; stroke-opacity:1; 
stroke-linecap:round; stroke-linejoin:round;">
<path d="M103.1240 33.5280
L89.9160 33.5280
" />
</g>
<g style="fill:#5994DC; fill-opacity:0.0; 
stroke:#5994DC; stroke-width:0.0000; stroke-opacity:1; 
stroke-linecap:round; stroke-linejoin:round;">
</g>
<g style="fill:#5994DC; fill-opacity:0.0; 
stroke:#5994DC; stroke-width:0.1500; stroke-opacity:1; 
stroke-linecap:round; stroke-linejoin:round;">
<path d="M107.1880 74.1680
L107.1880 47.7520
" />
<path d="M43.6880 39.6240 A4.0640 4.0640 0.0 0 0 43.6880 47.7520" />
<path d="M107.1880 82.2960 A4.0640 4.0640 0.0 0 0 107.1880 74.1680" />
<path d="M46.7360 33.5280
L89.9160 33.5280
" />
<circle cx="107.1880" cy="78.2320" r="1.1100" /> 
<circle cx="43.6880" cy="43.6880" r="1.1100" /> 
<path d="M46.7360 33.5280 A3.0480 3.0480 0.0 0 0 43.6880 36.5760" />
<path d="M107.1880 36.5760 A3.0480 3.0480 0.0 0 0 104.1400 33.5280" />
<circle cx="107.1880" cy="43.6880" r="1.1100" /> 
<circle cx="43.6880" cy="78.2320" r="1.1100" /> 
<path d="M43.6880 74.1680 A4.0640 4.0640 0.0 0 0 43.6880 82.2960" />
<path d="M43.6880 39.6240
L43.6880 36.5760
" />
<path d="M107.1880 82.2960
L43.6880 82.2960
" />
<path d="M107.1880 39.6240
L107.1880 36.5760
" />
<path d="M107.1880 47.7520 A4.0640 4.0640 0.0 0 0 107.1880 39.6240" />
<path d="M104.1400 33.5280
L103.1240 33.5280
" />
<path d="M43.6880 74.1680
L43.6880 47.7520
" />
</g>
<g style="fill:#C2C2C2; fill-opacity:0.0; 
stroke:#C2C2C2; stroke-width:0.0000; stroke-opacity:1; 
stroke-linecap:round; stroke-linejoin:round;">
</g>
<g style="fill:#C2C2C2; fill-opacity:0.0; 
stroke:#C2C2C2; stroke-width:0.1000; stroke-opacity:1; 
stroke-linecap:round; stroke-linejoin:round;">
<path d="M103.1240 33.5280
L103.1240 78.2320
" />
<path d="M47.7520 78.2320
L103.1240 78.2320
" />
</g>
<g style="fill:#C2C2C2; fill-opacity:0.0; 
stroke:#C2C2C2; stroke-width:0.1500; stroke-opacity:1; 
stroke-linecap:round; stroke-linejoin:round;">
<path d="M93.9800 37.5920 A4.0640 4.0640 0.0 0 0 89.9160 33.5280" />
</g>
<g style="fill:#C2C2C2; fill-opacity:0.0; 
stroke:#C2C2C2; stroke-width:0.1000; stroke-opacity:1; 
stroke-linecap:round; stroke-linejoin:round;">
<path d="M47.7520 37.5920
L47.7520 78.2320
" />
<path d="M93.9800 37.5920
L47.7520 37.5920
" />
</g>
</svg>
